<svg width="480" height="187" viewBox="0 0 480 187" fill="none" xmlns="http://www.w3.org/2000/svg">
<g clip-path="url(#clip0_2_214)">
<path d="M24.1579 166.44C31.3694 179.814 46.6749 185.555 46.6749 185.555C46.6749 185.555 50.2882 169.613 43.0766 156.239C35.8651 142.865 20.5596 137.123 20.5596 137.123C20.5596 137.123 16.9464 153.066 24.1579 166.44Z" fill="url(#paint0_linear_2_214)"/>
<path d="M29.1147 162.04C42.1345 169.873 47.1488 185.432 47.1488 185.432C47.1488 185.432 31.0539 188.291 18.0341 180.458C5.0143 172.624 0 157.066 0 157.066C0 157.066 16.0949 154.207 29.1147 162.04Z" fill="url(#paint1_linear_2_214)"/>
<path d="M42.3198 77.0973L32 66L128.319 0H375L376 18.6096L286.56 93.0482L183.36 109L42.3198 77.0973Z" fill="#04151F"/>
<path d="M408.151 37.625L382.785 9.0082L375 0L310.218 64.1138L299 73.5L286 128.229L301.5 187H310.218H434V66.7855L408.151 37.625Z" fill="#CCCCCC"/>
<path d="M308 66H32V187H308V66Z" fill="#F2F2F2"/>
<path d="M129 99H91C89.8954 99 89 99.8954 89 101V134.208C89 135.313 89.8954 136.208 91 136.208H129C130.105 136.208 131 135.313 131 134.208V101C131 99.8954 130.105 99 129 99Z" fill="#04151F"/>
<path d="M248.524 99H210C208.895 99 208 99.8954 208 101V134.208C208 135.313 208.895 136.208 210 136.208H248.524C249.628 136.208 250.524 135.313 250.524 134.208V101C250.524 99.8954 249.628 99 248.524 99Z" fill="#04151F"/>
<path d="M186.208 99H153C151.895 99 151 99.8954 151 101V182.047C151 183.152 151.895 184.047 153 184.047H186.208C187.313 184.047 188.208 183.152 188.208 182.047V101C188.208 99.8954 187.313 99 186.208 99Z" fill="#CCCCCC"/>
<path d="M391.667 92C392.403 92 393 91.403 393 90.6666V82C393 80.8954 392.105 80 391 80H379C377.895 80 377 80.8954 377 82V90C377 91.1046 377.895 92 379 92H391.667V92Z" fill="#04151F"/>
<path d="M371.667 92C372.403 92 373 91.403 373 90.6666V82C373 80.8954 372.105 80 371 80H359C357.895 80 357 80.8954 357 82V90C357 91.1046 357.895 92 359 92H371.667V92Z" fill="#04151F"/>
<path d="M391.667 108C392.403 108 393 107.403 393 106.667V98C393 96.8954 392.105 96 391 96H379C377.895 96 377 96.8954 377 98V106C377 107.105 377.895 108 379 108H391.667V108Z" fill="#04151F"/>
<path d="M371.667 108C372.403 108 373 107.403 373 106.667V98C373 96.8954 372.105 96 371 96H359C357.895 96 357 96.8954 357 98V106C357 107.105 357.895 108 359 108H371.667V108Z" fill="#04151F"/>
<path d="M451 122H447V189H451V122Z" fill="#04151F"/>
<path d="M478.999 113.078C479.195 136.359 449 155.5 449 155.5C449 155.5 419.196 136.51 419.001 113.23C418.805 89.9488 448.646 71 448.646 71C448.646 71 478.804 89.797 478.999 113.078Z" fill="url(#paint2_linear_2_214)"/>
</g>
<defs>
<linearGradient id="paint0_linear_2_214" x1="33.6173" y1="137.123" x2="33.6173" y2="185.555" gradientUnits="userSpaceOnUse">
<stop stop-color="#058B1D"/>
<stop offset="1" stop-color="#31662B"/>
</linearGradient>
<linearGradient id="paint1_linear_2_214" x1="23.5744" y1="156.557" x2="23.5744" y2="185.941" gradientUnits="userSpaceOnUse">
<stop stop-color="#31662B"/>
<stop offset="1" stop-color="#058B1D"/>
</linearGradient>
<linearGradient id="paint2_linear_2_214" x1="449" y1="71" x2="449" y2="155.5" gradientUnits="userSpaceOnUse">
<stop stop-color="#058B1D"/>
<stop offset="1" stop-color="#31662B"/>
</linearGradient>
<clipPath id="clip0_2_214">
<rect width="480" height="187" fill="white"/>
</clipPath>
</defs>
</svg>
