<svg width="480" height="325" viewBox="0 0 480 325" fill="none" xmlns="http://www.w3.org/2000/svg">
<path d="M69.0312 123L54.7812 84.4375L50.4688 83.9375V77.5H70.875V83.9375L66.8125 84.5625L74.9688 110.125L75.4062 111.906H75.5938L76 110.219L83.9062 84.5625L79.0312 83.9375V77.5H98.0938V83.9375L93.6562 84.4375L80.9062 123H69.0312ZM110.375 123.656C107.104 123.656 104.438 122.729 102.375 120.875C100.312 119.021 99.2812 116.552 99.2812 113.469C99.2812 111.365 99.8438 109.5 100.969 107.875C102.115 106.25 103.823 104.979 106.094 104.062C108.385 103.125 111.25 102.656 114.688 102.656H118.219V100.656C118.219 99.3021 117.833 98.1562 117.062 97.2188C116.292 96.2604 115.073 95.7812 113.406 95.7812C112.698 95.7812 112.031 95.875 111.406 96.0625C110.802 96.2292 110.25 96.4792 109.75 96.8125L109 101.125H101.281L101.125 91.7188C103.042 90.8646 105.042 90.125 107.125 89.5C109.229 88.875 111.573 88.5625 114.156 88.5625C118.76 88.5625 122.417 89.625 125.125 91.75C127.833 93.8542 129.188 96.8646 129.188 100.781V113.25C129.188 113.729 129.188 114.198 129.188 114.656C129.208 115.115 129.26 115.552 129.344 115.969L133 116.594V123H120.188C119.917 122.625 119.625 122.125 119.312 121.5C119 120.875 118.781 120.25 118.656 119.625C117.635 120.896 116.49 121.885 115.219 122.594C113.948 123.302 112.333 123.656 110.375 123.656ZM113.75 115.906C114.542 115.906 115.333 115.75 116.125 115.438C116.938 115.104 117.635 114.615 118.219 113.969V109.094H114.812C113.333 109.094 112.188 109.417 111.375 110.062C110.583 110.708 110.188 111.562 110.188 112.625C110.188 113.646 110.521 114.448 111.188 115.031C111.854 115.615 112.708 115.906 113.75 115.906ZM151.594 123.656C148.24 123.656 145.354 122.917 142.938 121.438C140.521 119.958 138.667 117.927 137.375 115.344C136.083 112.76 135.438 109.812 135.438 106.5V105.781C135.438 102.385 136.104 99.3958 137.438 96.8125C138.792 94.2292 140.667 92.2083 143.062 90.75C145.479 89.2917 148.292 88.5625 151.5 88.5625C154.729 88.5625 157.49 89.0521 159.781 90.0312C162.094 91.0104 163.917 92.0312 165.25 93.0938L165.062 103.75H156.906L155.594 97.625C155.24 97.2708 154.76 96.9792 154.156 96.75C153.573 96.5208 153.083 96.4062 152.688 96.4062C151.125 96.4062 149.885 96.75 148.969 97.4375C148.052 98.1042 147.396 99.125 147 100.5C146.604 101.875 146.406 103.635 146.406 105.781V106.5C146.406 108.729 146.667 110.49 147.188 111.781C147.729 113.052 148.406 113.958 149.219 114.5C150.031 115.042 150.865 115.312 151.719 115.312C153.031 115.312 154.042 114.99 154.75 114.344C155.479 113.677 156.042 112.708 156.438 111.438H165.625L165.75 111.625C165.25 114.312 164.469 116.552 163.406 118.344C162.344 120.115 160.865 121.448 158.969 122.344C157.094 123.219 154.635 123.656 151.594 123.656ZM180.625 123.656C177.354 123.656 174.688 122.729 172.625 120.875C170.562 119.021 169.531 116.552 169.531 113.469C169.531 111.365 170.094 109.5 171.219 107.875C172.365 106.25 174.073 104.979 176.344 104.062C178.635 103.125 181.5 102.656 184.938 102.656H188.469V100.656C188.469 99.3021 188.083 98.1562 187.312 97.2188C186.542 96.2604 185.323 95.7812 183.656 95.7812C182.948 95.7812 182.281 95.875 181.656 96.0625C181.052 96.2292 180.5 96.4792 180 96.8125L179.25 101.125H171.531L171.375 91.7188C173.292 90.8646 175.292 90.125 177.375 89.5C179.479 88.875 181.823 88.5625 184.406 88.5625C189.01 88.5625 192.667 89.625 195.375 91.75C198.083 93.8542 199.438 96.8646 199.438 100.781V113.25C199.438 113.729 199.438 114.198 199.438 114.656C199.458 115.115 199.51 115.552 199.594 115.969L203.25 116.594V123H190.438C190.167 122.625 189.875 122.125 189.562 121.5C189.25 120.875 189.031 120.25 188.906 119.625C187.885 120.896 186.74 121.885 185.469 122.594C184.198 123.302 182.583 123.656 180.625 123.656ZM184 115.906C184.792 115.906 185.583 115.75 186.375 115.438C187.188 115.104 187.885 114.615 188.469 113.969V109.094H185.062C183.583 109.094 182.438 109.417 181.625 110.062C180.833 110.708 180.438 111.562 180.438 112.625C180.438 113.646 180.771 114.448 181.438 115.031C182.104 115.615 182.958 115.906 184 115.906ZM217.875 123.719C214.333 123.719 211.635 122.781 209.781 120.906C207.948 119.01 207.031 116.021 207.031 111.938V96.75H202.812V89.1875H207.031V80.8438H217.938V89.1875H223.469V96.75H217.938V111.906C217.938 113.01 218.188 113.781 218.688 114.219C219.188 114.656 219.875 114.875 220.75 114.875C221.125 114.875 221.5 114.854 221.875 114.812C222.25 114.771 222.625 114.719 223 114.656L223.75 122.844C222.792 123.115 221.823 123.323 220.844 123.469C219.885 123.635 218.896 123.719 217.875 123.719ZM227.75 123V116.594L231.719 115.594V96.625L227 95.625V89.1875H242.688V115.594L246.625 116.594V123H227.75ZM231.406 82.7812V74.25H242.688V82.7812H231.406ZM265.594 123.656C262.115 123.656 259.135 122.938 256.656 121.5C254.198 120.042 252.312 118.021 251 115.438C249.708 112.833 249.062 109.823 249.062 106.406V105.781C249.062 102.406 249.708 99.4271 251 96.8438C252.312 94.2604 254.198 92.2396 256.656 90.7812C259.115 89.3021 262.073 88.5625 265.531 88.5625C269.01 88.5625 271.969 89.2917 274.406 90.75C276.865 92.2083 278.74 94.2292 280.031 96.8125C281.344 99.3958 282 102.385 282 105.781V106.406C282 109.802 281.344 112.802 280.031 115.406C278.74 117.99 276.865 120.01 274.406 121.469C271.969 122.927 269.031 123.656 265.594 123.656ZM265.594 115.312C266.927 115.312 267.99 114.958 268.781 114.25C269.594 113.521 270.177 112.49 270.531 111.156C270.906 109.823 271.094 108.24 271.094 106.406V105.781C271.094 104.01 270.906 102.469 270.531 101.156C270.177 99.8229 269.594 98.7917 268.781 98.0625C267.969 97.3125 266.885 96.9375 265.531 96.9375C264.198 96.9375 263.125 97.3125 262.312 98.0625C261.5 98.7917 260.917 99.8229 260.562 101.156C260.208 102.469 260.031 104.01 260.031 105.781V106.406C260.031 108.26 260.208 109.854 260.562 111.188C260.917 112.521 261.5 113.542 262.312 114.25C263.125 114.958 264.219 115.312 265.594 115.312ZM285.062 123V116.594L289 115.594V96.625L284.312 95.625V89.1875H299.375L299.75 93.9062C300.875 92.2188 302.25 90.9062 303.875 89.9688C305.521 89.0312 307.385 88.5625 309.469 88.5625C312.635 88.5625 315.135 89.6354 316.969 91.7812C318.802 93.9271 319.719 97.3333 319.719 102V115.594L323.656 116.594V123H305.531V116.594L308.719 115.594V101.969C308.719 100.156 308.354 98.875 307.625 98.125C306.896 97.3542 305.854 96.9688 304.5 96.9688C303.479 96.9688 302.604 97.1562 301.875 97.5312C301.146 97.8854 300.51 98.4271 299.969 99.1562V115.594L302.781 116.594V123H285.062Z" fill="#04151F"/>
<path d="M19.0312 53L4.78125 14.4375L0.46875 13.9375V7.5H20.875V13.9375L16.8125 14.5625L24.9688 40.125L25.4062 41.9062H25.5938L26 40.2188L33.9062 14.5625L29.0312 13.9375V7.5H48.0938V13.9375L43.6562 14.4375L30.9062 53H19.0312ZM49.9375 53V46.5938L53.9062 45.5938V26.625L49.1875 25.625V19.1875H64.875V45.5938L68.8125 46.5938V53H49.9375ZM53.5938 12.7812V4.25H64.875V12.7812H53.5938ZM70.5 53V46.5938L74.5 45.5938V11.6875L69.75 10.6875V4.25H85.4688V45.5938L89.4375 46.5938V53H70.5ZM90.9375 53V46.5938L94.9375 45.5938V11.6875L90.1875 10.6875V4.25H105.906V45.5938L109.875 46.5938V53H90.9375ZM123.562 53.6562C120.292 53.6562 117.625 52.7292 115.562 50.875C113.5 49.0208 112.469 46.5521 112.469 43.4688C112.469 41.3646 113.031 39.5 114.156 37.875C115.302 36.25 117.01 34.9792 119.281 34.0625C121.573 33.125 124.438 32.6562 127.875 32.6562H131.406V30.6562C131.406 29.3021 131.021 28.1562 130.25 27.2188C129.479 26.2604 128.26 25.7812 126.594 25.7812C125.885 25.7812 125.219 25.875 124.594 26.0625C123.99 26.2292 123.438 26.4792 122.938 26.8125L122.188 31.125H114.469L114.312 21.7188C116.229 20.8646 118.229 20.125 120.312 19.5C122.417 18.875 124.76 18.5625 127.344 18.5625C131.948 18.5625 135.604 19.625 138.312 21.75C141.021 23.8542 142.375 26.8646 142.375 30.7812V43.25C142.375 43.7292 142.375 44.1979 142.375 44.6562C142.396 45.1146 142.448 45.5521 142.531 45.9688L146.188 46.5938V53H133.375C133.104 52.625 132.812 52.125 132.5 51.5C132.188 50.875 131.969 50.25 131.844 49.625C130.823 50.8958 129.677 51.8854 128.406 52.5938C127.135 53.3021 125.521 53.6562 123.562 53.6562ZM126.938 45.9062C127.729 45.9062 128.521 45.75 129.312 45.4375C130.125 45.1042 130.823 44.6146 131.406 43.9688V39.0938H128C126.521 39.0938 125.375 39.4167 124.562 40.0625C123.771 40.7083 123.375 41.5625 123.375 42.625C123.375 43.6458 123.708 44.4479 124.375 45.0312C125.042 45.6146 125.896 45.9062 126.938 45.9062ZM163.469 66.6562C161.698 66.6562 159.677 66.4375 157.406 66C155.135 65.5625 153.135 64.9271 151.406 64.0938L153.156 56.5312C154.802 57.1771 156.458 57.6667 158.125 58C159.812 58.3542 161.344 58.5312 162.719 58.5312C164.969 58.5312 166.615 57.9062 167.656 56.6562C168.719 55.4271 169.25 53.7396 169.25 51.5938V50C168.312 51.1667 167.219 52.0729 165.969 52.7188C164.74 53.3438 163.323 53.6562 161.719 53.6562C158.969 53.6562 156.615 52.9583 154.656 51.5625C152.698 50.1667 151.198 48.2083 150.156 45.6875C149.135 43.1458 148.625 40.1875 148.625 36.8125V36.1562C148.625 32.6354 149.135 29.5625 150.156 26.9375C151.177 24.2917 152.635 22.2396 154.531 20.7812C156.448 19.3021 158.729 18.5625 161.375 18.5625C163.333 18.5625 165 18.9896 166.375 19.8438C167.75 20.6979 168.927 21.8958 169.906 23.4375L170.594 19.1875H180.25V51.6562C180.25 54.6562 179.562 57.2812 178.188 59.5312C176.833 61.7812 174.896 63.5312 172.375 64.7812C169.875 66.0312 166.906 66.6562 163.469 66.6562ZM164.938 45.25C165.854 45.25 166.688 45.1042 167.438 44.8125C168.188 44.5 168.792 44.0312 169.25 43.4062V29.25C168.792 28.5 168.188 27.9375 167.438 27.5625C166.688 27.1667 165.854 26.9688 164.938 26.9688C163.625 26.9688 162.573 27.3542 161.781 28.125C161.01 28.875 160.448 29.9375 160.094 31.3125C159.76 32.6875 159.594 34.3021 159.594 36.1562V36.8125C159.594 39.5 159.979 41.5833 160.75 43.0625C161.521 44.5208 162.917 45.25 164.938 45.25ZM178.969 26.75L174.031 19.1875H184.094V25.6562L178.969 26.75ZM202.875 53.6562C199.562 53.6562 196.667 52.9479 194.188 51.5312C191.729 50.0938 189.812 48.1354 188.438 45.6562C187.083 43.1771 186.406 40.375 186.406 37.25V36.0938C186.406 32.6562 187.01 29.6146 188.219 26.9688C189.427 24.3229 191.198 22.2604 193.531 20.7812C195.865 19.2812 198.729 18.5417 202.125 18.5625C205.188 18.5625 207.771 19.1562 209.875 20.3438C212 21.5104 213.615 23.2396 214.719 25.5312C215.823 27.8021 216.375 30.6042 216.375 33.9375V39.5938H197.781L197.75 39.8125C197.917 40.875 198.271 41.8229 198.812 42.6562C199.375 43.4688 200.146 44.1146 201.125 44.5938C202.104 45.0729 203.312 45.3125 204.75 45.3125C206.167 45.3125 207.552 45.1562 208.906 44.8438C210.281 44.5104 211.729 43.9896 213.25 43.2812L215.75 49.9062C214.229 50.9896 212.375 51.8854 210.188 52.5938C208 53.3021 205.562 53.6562 202.875 53.6562ZM197.781 32.8125H206.375V32C206.375 30.7917 206.25 29.7812 206 28.9688C205.771 28.1562 205.365 27.5417 204.781 27.125C204.198 26.7083 203.396 26.5 202.375 26.5C201.271 26.5 200.385 26.7708 199.719 27.3125C199.073 27.8333 198.594 28.5625 198.281 29.5C197.99 30.4167 197.781 31.4688 197.656 32.6562L197.781 32.8125Z" fill="#04151F"/>
<g clip-path="url(#clip0_2_145)">
<path d="M24.1579 304.44C31.3694 317.814 46.6749 323.555 46.6749 323.555C46.6749 323.555 50.2882 307.613 43.0766 294.239C35.8651 280.865 20.5596 275.123 20.5596 275.123C20.5596 275.123 16.9464 291.066 24.1579 304.44Z" fill="url(#paint0_linear_2_145)"/>
<path d="M29.1147 300.04C42.1345 307.873 47.1488 323.432 47.1488 323.432C47.1488 323.432 31.0539 326.291 18.0341 318.458C5.0143 310.624 0 295.066 0 295.066C0 295.066 16.0949 292.207 29.1147 300.04Z" fill="url(#paint1_linear_2_145)"/>
<path d="M42.3198 215.097L32 204L128.319 138H375L376 156.61L286.56 231.048L183.36 247L42.3198 215.097Z" fill="#04151F"/>
<path d="M408.151 175.625L382.785 147.008L375 138L310.218 202.114L299 211.5L286 266.229L301.5 325H310.218H434V204.785L408.151 175.625Z" fill="#CCCCCC"/>
<path d="M308 204H32V325H308V204Z" fill="#F2F2F2"/>
<path d="M129 237H91C89.8954 237 89 237.895 89 239V272.208C89 273.313 89.8954 274.208 91 274.208H129C130.105 274.208 131 273.313 131 272.208V239C131 237.895 130.105 237 129 237Z" fill="#04151F"/>
<path d="M248.524 237H210C208.895 237 208 237.895 208 239V272.208C208 273.313 208.895 274.208 210 274.208H248.524C249.628 274.208 250.524 273.313 250.524 272.208V239C250.524 237.895 249.628 237 248.524 237Z" fill="#04151F"/>
<path d="M186.208 237H153C151.895 237 151 237.895 151 239V320.047C151 321.152 151.895 322.047 153 322.047H186.208C187.313 322.047 188.208 321.152 188.208 320.047V239C188.208 237.895 187.313 237 186.208 237Z" fill="#CCCCCC"/>
<path d="M391.667 230C392.403 230 393 229.403 393 228.667V220C393 218.895 392.105 218 391 218H379C377.895 218 377 218.895 377 220V228C377 229.105 377.895 230 379 230H391.667V230Z" fill="#04151F"/>
<path d="M371.667 230C372.403 230 373 229.403 373 228.667V220C373 218.895 372.105 218 371 218H359C357.895 218 357 218.895 357 220V228C357 229.105 357.895 230 359 230H371.667V230Z" fill="#04151F"/>
<path d="M391.667 246C392.403 246 393 245.403 393 244.667V236C393 234.895 392.105 234 391 234H379C377.895 234 377 234.895 377 236V244C377 245.105 377.895 246 379 246H391.667V246Z" fill="#04151F"/>
<path d="M371.667 246C372.403 246 373 245.403 373 244.667V236C373 234.895 372.105 234 371 234H359C357.895 234 357 234.895 357 236V244C357 245.105 357.895 246 359 246H371.667V246Z" fill="#04151F"/>
<path d="M451 260H447V327H451V260Z" fill="#04151F"/>
<path d="M478.999 251.078C479.195 274.359 449 293.5 449 293.5C449 293.5 419.196 274.51 419.001 251.23C418.805 227.949 448.646 209 448.646 209C448.646 209 478.804 227.797 478.999 251.078Z" fill="url(#paint2_linear_2_145)"/>
</g>
<defs>
<linearGradient id="paint0_linear_2_145" x1="33.6173" y1="275.123" x2="33.6173" y2="323.555" gradientUnits="userSpaceOnUse">
<stop stop-color="#058B1D"/>
<stop offset="1" stop-color="#31662B"/>
</linearGradient>
<linearGradient id="paint1_linear_2_145" x1="23.5744" y1="294.557" x2="23.5744" y2="323.941" gradientUnits="userSpaceOnUse">
<stop stop-color="#31662B"/>
<stop offset="1" stop-color="#058B1D"/>
</linearGradient>
<linearGradient id="paint2_linear_2_145" x1="449" y1="209" x2="449" y2="293.5" gradientUnits="userSpaceOnUse">
<stop stop-color="#058B1D"/>
<stop offset="1" stop-color="#31662B"/>
</linearGradient>
<clipPath id="clip0_2_145">
<rect width="480" height="187" fill="white" transform="translate(0 138)"/>
</clipPath>
</defs>
</svg>
